<svg xmlns="http://www.w3.org/2000/svg" viewBox="0 0 128 128" role="img" aria-label="MinifyAI logo">
  <defs>
    <linearGradient id="grad" x1="0%" x2="100%" y1="0%" y2="100%">
      <stop offset="0%" stop-color="#2ba88e" />
      <stop offset="100%" stop-color="#48c6aa" />
    </linearGradient>
  </defs>
  <rect width="128" height="128" rx="28" fill="url(#grad)" />
  <path
    d="M42 38c-5.5 0-10 4.5-10 10v32c0 5.5 4.5 10 10 10h20l14 14c2.8 2.8 7.6 0.82 7.6-3.2V90H86c5.5 0 10-4.5 10-10V48c0-5.5-4.5-10-10-10H42zm10.5 18H64a5 5 0 1 1 0 10H52.5a5 5 0 0 1 0-10zm0 18H76a5 5 0 1 1 0 10H52.5a5 5 0 0 1 0-10z"
    fill="#fff"
    fill-rule="evenodd"
  />
</svg>
